<svg xmlns="http://www.w3.org/2000/svg" id="prefix__Logo" width="356.431" height="56.91" viewBox="0 0 356.431 56.91"><defs><style>.prefix__cls-1{fill:#fff}</style></defs><g id="prefix__logo_symbol_1_"><path id="prefix__Path_711" d="M229.079 28.681a23.94 23.94 0 00-36.567-11.167A24.2 24.2 0 01196 20.655a19.353 19.353 0 0128.8 9.586c4.668 12.768-4.905 29.695-7.978 34.627-5.6-1.893-24.274-9.016-28.474-21.337a16.714 16.714 0 01-.665-3.3c-.516-3.65-1.228-8.65-6.513-10.645a2.03 2.03 0 00-.217-.068c-5.115-1.37-9.681.814-11.364 5.434a9.019 9.019 0 009.776 12.015 2.277 2.277 0 00-.665-4.5 4.453 4.453 0 01-4.83-5.936c.855-2.354 3.019-3.324 5.794-2.626 2.483.991 2.985 3.311 3.507 6.981a20.164 20.164 0 00.889 4.206c5.672 16.649 31.981 24.362 33.094 24.681a2.248 2.248 0 00.631.088 2.28 2.28 0 001.872-.977c.643-.943 15.724-22.951 9.422-40.203z" class="prefix__cls-1" data-name="Path 711" transform="translate(-154.428 -12.944)"/><path id="prefix__Path_712" d="M182.352 53.681c-7.307 6.364-17.232 9.986-21.038 11.214-3.06-4.9-12.673-21.839-7.992-34.647a19.421 19.421 0 0124.878-11.56 20.011 20.011 0 0110.624 9.41 13.805 13.805 0 011.655 6.669 21.43 21.43 0 001.106 6.357A8.856 8.856 0 00196.2 46.2a9.02 9.02 0 0012.327-11.248 9.085 9.085 0 00-8.982-5.909 2.28 2.28 0 00.265 4.552 4.5 4.5 0 014.437 2.924 4.462 4.462 0 01-6.106 5.556 4.323 4.323 0 01-2.252-2.476 17.052 17.052 0 01-.855-5.1 18.263 18.263 0 00-2.2-8.589 26.552 26.552 0 00-3.758-5.251 27.018 27.018 0 00-1.662-1.655l-.014-.014a22.723 22.723 0 00-1.777-1.452 23.251 23.251 0 00-5.848-3.141 23.987 23.987 0 00-30.726 14.281c-6.3 17.252 8.779 39.261 9.423 40.19a2.28 2.28 0 001.872.977 2.513 2.513 0 00.59-.075c.624-.17 14.7-4.037 24.688-12.89a37.3 37.3 0 01-3.27-3.199z" class="prefix__cls-1" data-name="Path 712" transform="translate(-147.505 -12.944)"/></g><g id="prefix__Group_516" data-name="Group 516" transform="translate(102.075 15.49)"><path id="prefix__Path_713" d="M39.327 150.8l-.034-17.992-8.928 14.993h-1.622l-8.928-14.885V150.8H16.43v-24.69h2.89l10.3 17.354 10.161-17.354h2.89l.034 24.695h-3.378z" class="prefix__cls-1" data-name="Path 713" transform="translate(-16.43 -125.825)"/><path id="prefix__Path_714" d="M85.258 144.631H72.13l-2.714 6.169H65.78l11.18-24.69h3.494l11.222 24.69h-3.7zm-1.235-2.822l-5.326-12.1-5.326 12.1z" class="prefix__cls-1" data-name="Path 714" transform="translate(-32.3 -125.825)"/><path id="prefix__Path_715" d="M115.957 129.186h-8.467v-3.066h20.427v3.066h-8.467v21.628h-3.494v-21.628z" class="prefix__cls-1" data-name="Path 715" transform="translate(-45.712 -125.828)"/><path id="prefix__Path_716" d="M151.34 149.313a12.024 12.024 0 01-4.674-4.518 13.2 13.2 0 010-12.944 12.034 12.034 0 014.695-4.518 13.756 13.756 0 016.7-1.642 14.048 14.048 0 015.292.97 10.784 10.784 0 014.091 2.877l-2.293 2.225a9.193 9.193 0 00-6.947-2.931 10.086 10.086 0 00-4.973 1.235 8.963 8.963 0 00-3.474 3.406 10 10 0 000 9.7 9.01 9.01 0 003.474 3.406 10.086 10.086 0 004.973 1.235 9.212 9.212 0 006.947-2.965l2.293 2.225a10.933 10.933 0 01-4.111 2.89 13.9 13.9 0 01-5.312.991 13.658 13.658 0 01-6.681-1.642z" class="prefix__cls-1" data-name="Path 716" transform="translate(-57.765 -125.69)"/><path id="prefix__Path_717" d="M211.975 126.11v24.69h-3.528v-11h-14.179v11h-3.528v-24.69h3.528v10.617h14.179V126.11z" class="prefix__cls-1" data-name="Path 717" transform="translate(-72.483 -125.825)"/><path id="prefix__Path_718" d="M237.59 126.11h10.794a15.492 15.492 0 017.022 1.533 11.323 11.323 0 014.763 4.342 13.2 13.2 0 010 12.944 11.407 11.407 0 01-4.763 4.342 15.492 15.492 0 01-7.022 1.533H237.59zm10.583 20.814a10.518 10.518 0 004.783-1.038 7.42 7.42 0 003.175-2.965 9.512 9.512 0 000-8.928 7.46 7.46 0 00-3.175-2.965 10.518 10.518 0 00-4.783-1.038h-6v16.934z" class="prefix__cls-1" data-name="Path 718" transform="translate(-87.549 -125.825)"/><path id="prefix__Path_719" d="M299.582 145.092h-12.348L284.8 150.8h-4.73l11.113-24.695h4.517l11.148 24.695h-4.8zm-1.52-3.6l-4.654-10.792-4.62 10.794z" class="prefix__cls-1" data-name="Path 719" transform="translate(-101.209 -125.825)"/><path id="prefix__Path_720" d="M331.052 129.991h-8.182v-3.881h20.957v3.881h-8.182V150.8h-4.586v-20.809z" class="prefix__cls-1" data-name="Path 720" transform="translate(-114.973 -125.825)"/><path id="prefix__Path_721" d="M382.571 146.958v3.842H364.05v-24.69h18.026v3.847h-13.44v6.418h11.927v3.772h-11.927v6.811z" class="prefix__cls-1" data-name="Path 721" transform="translate(-128.215 -125.825)"/></g></svg>