<svg xmlns="http://www.w3.org/2000/svg" width="664.826" height="496.613" viewBox="0 0 664.826 496.613"><g fill="#fff"><path data-name="Path 711" d="M651.416 137.322c-39.6-108.279-159.841-164.166-268.12-124.619a207.592 207.592 0 00-50.972 27.173 211.2 211.2 0 0130.429 27.41 170.034 170.034 0 0134.218-17.23c87.677-32.028 185.062 13.2 217.09 100.879 40.731 111.421-42.802 259.121-69.62 302.165-48.9-16.517-211.821-78.678-248.467-186.187-2.782-7.282-4.262-17.76-5.8-28.831-4.5-31.85-10.715-75.481-56.833-92.886a17.727 17.727 0 00-1.894-.592c-44.638-11.959-84.48 7.1-99.162 47.42a78.7 78.7 0 0085.309 104.845 19.868 19.868 0 00-5.8-39.31 38.857 38.857 0 01-42.151-51.8c7.459-20.543 26.344-29.008 50.558-22.911 21.668 8.643 26.048 28.89 30.607 60.918 1.894 13.32 3.671 25.93 7.755 36.7 49.488 145.283 279.07 212.59 288.779 215.377a19.619 19.619 0 005.506.77 19.9 19.9 0 0016.34-8.525c5.628-8.17 137.228-200.218 82.228-350.766z"/><path data-name="Path 712" d="M304.085 355.477c-63.76 55.531-150.371 87.144-183.582 97.859-26.7-42.743-110.588-190.568-69.739-302.34C82.795 63.32 180.237 18.091 267.854 50.119c49.433 18.056 77.672 54.643 92.709 82.112 12.373 22.674 13.32 39.132 14.445 58.195.947 15.807 1.954 33.745 9.65 55.471a77.276 77.276 0 0040.257 44.342 78.707 78.707 0 00107.568-98.155c-11.781-32.324-44.223-53.577-78.382-51.564a19.9 19.9 0 002.309 39.724 39.223 39.223 0 0138.717 25.512 38.938 38.938 0 01-53.281 48.486 37.724 37.724 0 01-19.651-21.607c-5.8-16.4-6.631-30.074-7.459-44.519-1.243-20.839-2.6-44.46-19.24-74.949a231.705 231.705 0 00-32.801-45.821c-4.677-5.032-9.472-9.887-14.5-14.445l-.118-.118a198.286 198.286 0 00-15.511-12.669 202.9 202.9 0 00-51.031-27.41C173.195-26.844 53.014 29.043 13.408 137.322c-55 150.548 76.606 342.6 82.23 350.707a19.9 19.9 0 0016.34 8.525 21.925 21.925 0 005.15-.651c5.446-1.48 128.289-35.225 215.433-112.482a325.53 325.53 0 01-28.476-27.944z"/></g></svg>